<svg width="215" height="67" viewBox="0 0 215 67" fill="none" xmlns="http://www.w3.org/2000/svg">
<path d="M24.32 46.9799C22.27 49.5799 19.4799 50.8799 15.94 50.8799C13.65 50.8799 11.48 50.2999 9.40995 49.1499C7.10995 47.8599 5.31995 46.0899 4.04995 43.8499C2.81995 41.6599 2.19995 39.1599 2.19995 36.3499C2.19995 31.7199 3.80995 28.0199 7.02995 25.2499C9.58995 23.0399 12.53 21.9399 15.85 21.9399C17.61 21.9399 19.16 22.2199 20.52 22.7899C21.88 23.3599 23.1399 24.2499 24.3099 25.4899V24.8199C24.3099 23.9399 24.43 23.3899 24.66 23.1599C24.8899 22.9399 25.45 22.8199 26.33 22.8199H31.93C32.8099 22.8199 33.36 22.9299 33.59 23.1599C33.8099 23.3799 33.93 23.9399 33.93 24.8199V48.0199C33.93 48.8999 33.82 49.4499 33.59 49.6799C33.37 49.8999 32.8099 50.0199 31.93 50.0199H26.33C25.45 50.0199 24.8899 49.9099 24.66 49.6799C24.43 49.4499 24.3099 48.8999 24.3099 48.0199V46.9899L24.32 46.9799ZM18.4 30.2199C16.6799 30.2199 15.22 30.8199 14.01 32.0399C12.8 33.2499 12.19 34.7299 12.19 36.4599C12.19 38.0999 12.79 39.5399 14.01 40.7699C15.2 41.9799 16.67 42.5899 18.4 42.5899C20.1299 42.5899 21.58 41.9899 22.79 40.7699C24 39.5599 24.61 38.0999 24.61 36.3999C24.61 34.6999 24 33.2099 22.79 32.0299C21.54 30.8199 20.08 30.2099 18.4 30.2099V30.2199Z" fill="#E6213E"/>
<path d="M45.26 6.95996C46.76 6.95996 48.04 7.48996 49.1 8.53996C50.16 9.58996 50.68 10.86 50.68 12.35C50.68 13.84 50.15 15.13 49.1 16.19C48.05 17.25 46.78 17.77 45.29 17.77C43.8 17.77 42.49 17.24 41.45 16.19C40.4 15.12 39.87 13.82 39.87 12.29C39.87 10.76 40.4 9.58996 41.47 8.53996C42.53 7.48996 43.8 6.95996 45.26 6.95996ZM50.06 24.8V48C50.06 48.88 49.95 49.43 49.72 49.66C49.5 49.88 48.94 50 48.06 50H42.44C41.56 50 41.01 49.89 40.78 49.66C40.56 49.44 40.44 48.88 40.44 48V24.8C40.44 23.92 40.55 23.37 40.78 23.14C41.01 22.91 41.56 22.8 42.44 22.8H48.06C48.94 22.8 49.49 22.91 49.72 23.14C49.94 23.36 50.06 23.92 50.06 24.8Z" fill="#E6213E"/>
<path d="M66.27 27.26C67.36 25.54 68.61 24.31 70.01 23.55C71.41 22.8 73.13 22.42 75.18 22.42C76 22.42 76.52 22.54 76.73 22.77C76.94 23 77.05 23.56 77.05 24.44V29.19C77.05 29.93 76.97 30.45 76.8 30.74C76.63 31.03 76.35 31.18 75.94 31.18C75.8 31.18 75.64 31.16 75.44 31.12C74.11 30.83 73.16 30.68 72.6 30.68C70.82 30.68 69.32 31.3 68.09 32.53C67.43 33.19 66.96 33.97 66.68 34.86C66.41 35.75 66.27 36.91 66.27 38.36V48C66.27 48.88 66.16 49.43 65.93 49.66C65.71 49.88 65.15 50 64.27 50H58.65C57.77 50 57.22 49.89 56.99 49.66C56.77 49.44 56.65 48.88 56.65 48V24.8C56.65 23.92 56.76 23.37 56.99 23.14C57.22 22.91 57.77 22.8 58.65 22.8H64.27C65.15 22.8 65.7 22.91 65.93 23.14C66.15 23.36 66.27 23.92 66.27 24.8V27.26Z" fill="#E6213E"/>
<path d="M96.56 37.1301L102.71 24.21C103.02 23.51 103.28 23.1 103.47 22.98C103.66 22.86 104.15 22.8 104.93 22.8H107.83C108.61 22.8 109.1 22.86 109.28 22.98C109.46 23.1 109.72 23.52 110.06 24.24L116.21 37.5401L122.39 24.21C122.72 23.51 122.98 23.1 123.17 22.98C123.36 22.86 123.84 22.8 124.62 22.8H130.95C132.28 22.8 132.94 23.15 132.94 23.85C132.94 24.14 132.77 24.61 132.44 25.26L120.19 48.64C119.84 49.32 119.57 49.7201 119.4 49.8301C119.23 49.9401 118.75 49.9901 117.96 49.9901H114.62C113.84 49.9901 113.36 49.9301 113.17 49.8101C112.98 49.6901 112.72 49.27 112.39 48.55L106.27 35.07L100.41 48.5201C100.1 49.24 99.84 49.67 99.65 49.8C99.46 49.93 98.97 49.9901 98.19 49.9901H94.82C94.04 49.9901 93.56 49.9401 93.38 49.8301C93.2 49.7201 92.94 49.32 92.59 48.6101L80.58 25.26C80.25 24.62 80.08 24.17 80.08 23.91C80.08 23.5 80.23 23.21 80.52 23.05C80.81 22.88 81.33 22.8 82.07 22.8H88.46C89.24 22.8 89.72 22.86 89.91 22.98C90.1 23.1 90.35 23.52 90.69 24.24L96.55 37.1301H96.56Z" fill="white"/>
<path d="M144.4 38.16C144.46 42.24 146.4 44.28 150.23 44.28C151.3 44.28 152.18 44.12 152.85 43.81C153.52 43.5 154.11 42.97 154.62 42.23C154.78 42 154.95 41.85 155.13 41.79C155.31 41.73 155.74 41.7 156.4 41.7H161.67C162.41 41.7 162.93 41.78 163.22 41.95C163.51 42.12 163.66 42.41 163.66 42.84C163.66 43.27 163.47 43.86 163.1 44.6C162.73 45.34 162.3 45.99 161.81 46.53C159.1 49.56 155.24 51.07 150.24 51.07C145.24 51.07 141.31 49.61 138.46 46.68C135.94 44.08 134.68 40.72 134.68 36.6C134.68 33.67 135.36 31 136.73 28.6C139.21 24.22 143.56 22.04 149.77 22.04C155.28 22.04 159.31 23.87 161.87 27.52C163.71 30.12 164.62 33.13 164.62 36.54C164.62 37.22 164.49 37.66 164.24 37.86C163.99 38.06 163.44 38.15 162.6 38.15H144.38L144.4 38.16ZM155.68 32.59C155.35 31.24 154.69 30.18 153.7 29.41C152.71 28.64 151.51 28.25 150.08 28.25C148.65 28.25 147.41 28.63 146.46 29.39C145.51 30.15 144.91 31.22 144.66 32.58H155.68V32.59Z" fill="white"/>
<path d="M179.74 25.47C180.78 24.4 181.78 23.62 182.76 23.16C184.44 22.34 186.26 21.93 188.21 21.93C192.19 21.93 195.54 23.43 198.26 26.44C200.66 29.1 201.86 32.4 201.86 36.34C201.86 40.93 200.29 44.61 197.14 47.38C194.5 49.71 191.5 50.87 188.12 50.87C184.74 50.87 181.81 49.57 179.74 46.97V48C179.74 48.88 179.63 49.43 179.4 49.66C179.17 49.89 178.62 50 177.74 50H172.12C171.24 50 170.69 49.89 170.46 49.66C170.23 49.43 170.12 48.88 170.12 48V7.97998C170.12 7.09998 170.23 6.54998 170.46 6.31998C170.68 6.09998 171.24 5.97998 172.12 5.97998H177.74C178.62 5.97998 179.17 6.08998 179.4 6.31998C179.62 6.53998 179.74 7.09998 179.74 7.97998V25.47ZM185.69 30.22C183.97 30.22 182.5 30.82 181.27 32.04C180.06 33.25 179.45 34.71 179.45 36.41C179.45 38.11 180.06 39.56 181.27 40.78C182.48 41.99 183.95 42.6 185.66 42.6C187.37 42.6 188.86 42 190.05 40.78C191.26 39.55 191.87 38.07 191.87 36.33C191.87 34.59 191.26 33.24 190.04 32.04C188.82 30.84 187.37 30.24 185.69 30.24V30.22Z" fill="white"/>
<path d="M211.72 43.86C212.17 44 212.52 44.23 212.78 44.53C213.31 45.15 213.58 45.89 213.58 46.75C213.58 47.56 213.34 48.28 212.87 48.89C212.46 49.43 211.91 49.83 211.23 50.1C210.57 50.36 209.87 50.49 209.14 50.49C207.59 50.49 206.41 49.99 205.6 49C205.29 48.62 205.03 48.21 204.82 47.77C204.61 47.33 204.51 46.98 204.51 46.71C204.51 46.58 204.55 46.49 204.63 46.44C204.71 46.39 204.86 46.37 205.08 46.37H206.99C207.23 46.37 207.38 46.4 207.44 46.44C207.5 46.49 207.56 46.66 207.63 46.95C207.7 47.22 207.84 47.43 208.04 47.6C208.33 47.84 208.7 47.96 209.13 47.96C209.64 47.96 210.03 47.79 210.31 47.44C210.54 47.15 210.66 46.83 210.66 46.47C210.66 45.96 210.45 45.55 210.04 45.24C209.79 45.06 209.54 44.97 209.3 44.97H208.96C208.82 44.97 208.72 44.94 208.67 44.87C208.62 44.8 208.6 44.64 208.6 44.42V43.58C208.6 43.33 208.63 43.17 208.69 43.11C208.75 43.05 208.93 43.01 209.23 43C209.5 42.98 209.72 42.85 209.91 42.61C210.1 42.37 210.19 42.09 210.19 41.77C210.19 41.45 210.08 41.18 209.86 40.97C209.64 40.76 209.37 40.65 209.03 40.65C208.58 40.65 208.24 40.82 208.03 41.16C207.98 41.24 207.92 41.4 207.86 41.66C207.83 41.78 207.78 41.86 207.71 41.9C207.64 41.94 207.5 41.95 207.29 41.95H205.73C205.51 41.95 205.37 41.93 205.29 41.88C205.21 41.83 205.17 41.75 205.17 41.63C205.17 41.14 205.33 40.63 205.66 40.09C206.03 39.49 206.5 39.04 207.1 38.74C207.75 38.41 208.48 38.24 209.27 38.24C210.38 38.24 211.28 38.55 211.95 39.16C212.6 39.75 212.92 40.54 212.92 41.51C212.92 42.05 212.82 42.51 212.63 42.9C212.44 43.29 212.13 43.61 211.72 43.88V43.86Z" fill="#E6233F"/>
</svg>
